<?xml version="1.0" standalone="no"?>
<!DOCTYPE svg PUBLIC "-//W3C//DTD SVG 20010904//EN"
 "http://www.w3.org/TR/2001/REC-SVG-20010904/DTD/svg10.dtd">
<svg version="1.0" xmlns="http://www.w3.org/2000/svg"
 width="200.000000pt" height="200.000000pt" viewBox="0 0 200.000000 200.000000"
 preserveAspectRatio="xMidYMid meet">
<metadata>
Created by potrace 1.11, written by Peter Selinger 2001-2013
</metadata>
<g transform="translate(0.000000,200.000000) scale(0.100000,-0.100000)"
fill="#000000" stroke="none">
<path d="M1090 1869 c-19 -4 -51 -11 -70 -14 -332 -54 -325 -52 -324 -120 1
-28 4 -67 8 -87 6 -33 5 -38 -11 -38 -26 0 -79 -35 -99 -66 -13 -19 -18 -50
-20 -112 -1 -48 -2 -92 -3 -97 -1 -7 -32 -10 -81 -9 -51 1 -86 -3 -97 -12 -17
-12 -18 -48 -18 -534 0 -492 1 -522 18 -535 13 -10 56 -13 160 -11 127 2 144
0 158 -17 15 -18 71 -28 284 -52 33 -4 62 -9 65 -10 5 -3 145 -18 170 -18 41
0 51 5 65 33 9 17 13 35 10 40 -7 12 7 19 44 24 18 2 31 -1 31 -8 0 -7 3 -7 8
-1 4 6 30 10 57 10 28 0 53 -4 57 -10 5 -7 8 -6 8 0 0 6 20 10 46 9 36 -1 48
2 58 20 20 31 17 1039 -2 1058 -8 8 -42 14 -90 15 -42 1 -82 2 -88 2 -6 1 -10
30 -9 79 2 101 -7 130 -51 170 -31 26 -46 32 -85 32 l-47 0 -11 63 c-6 34 -13
76 -16 92 -12 68 -17 84 -30 95 -19 16 -54 19 -95 9z"/>
</g>
</svg>
